<svg width="206" height="101" viewBox="0 0 206 101" fill="none" xmlns="http://www.w3.org/2000/svg">
<path d="M58.7891 94.5742C58.151 94.5742 57.4674 94.3464 56.7383 93.8906C56.0091 93.4349 55.3711 93.0247 54.8242 92.6602L8.88672 54.7891C7.88411 53.9688 6.92708 52.9661 6.01562 51.7812C5.19531 50.5964 4.78516 49.2747 4.78516 47.8164C4.78516 46.3581 5.19531 45.0365 6.01562 43.8516C6.83594 42.6667 7.79297 41.6185 8.88672 40.707L54.8242 2.97266C55.3711 2.51693 55.9635 2.10677 56.6016 1.74219C57.3307 1.3776 58.0599 1.19531 58.7891 1.19531C62.1615 1.19531 63.8477 2.88151 63.8477 6.25391C63.8477 7.16536 63.5742 8.03125 63.0273 8.85156C62.4805 9.67188 61.8424 10.3555 61.1133 10.9023L16.2695 47.8164L61.1133 84.7305C61.8424 85.2773 62.4805 85.9609 63.0273 86.7812C63.5742 87.5104 63.8477 88.3763 63.8477 89.3789C63.8477 92.8424 62.1615 94.5742 58.7891 94.5742Z" fill="#F63B86"/>
<path d="M150.291 94.5283C146.895 94.5283 145.196 92.7842 145.196 89.2959C145.196 88.2861 145.472 87.4141 146.022 86.6797C146.665 85.8535 147.308 85.165 147.95 84.6143L193.114 47.4365L147.95 10.2588C147.308 9.70801 146.665 9.01953 146.022 8.19336C145.472 7.36719 145.196 6.49512 145.196 5.57715C145.196 2.18066 146.895 0.482422 150.291 0.482422C151.025 0.482422 151.714 0.666016 152.356 1.0332C153.091 1.40039 153.733 1.81348 154.284 2.27246L200.55 40.2764C201.651 41.1943 202.615 42.25 203.441 43.4434C204.268 44.6367 204.681 45.9678 204.681 47.4365C204.681 48.8135 204.268 50.0986 203.441 51.292C202.615 52.4854 201.697 53.4951 200.688 54.3213L154.284 92.6006C153.733 93.0596 153.091 93.5186 152.356 93.9775C151.714 94.3447 151.025 94.5283 150.291 94.5283Z" fill="#F63B86"/>
<path d="M105.801 70.1367C101.348 70.1367 97.3438 69.082 93.7891 66.9727C90.2344 64.8242 87.4219 61.9336 85.3516 58.3008C83.3203 54.668 82.3047 50.625 82.3047 46.1719C82.3047 42.1875 83.3398 38.457 85.4102 34.9805C87.5195 31.4648 90.2539 28.6328 93.6133 26.4844C97.0117 24.2969 100.664 23.2031 104.57 23.2031C110.352 23.2031 115.352 24.8438 119.57 28.125V27.4805C119.57 26.2695 120 25.2344 120.859 24.375C121.719 23.5156 122.754 23.0859 123.965 23.0859C125.176 23.0859 126.211 23.5156 127.07 24.375C127.93 25.2344 128.359 26.2695 128.359 27.4805V56.1914C128.359 57.793 129.082 59.1211 130.527 60.1758C132.012 61.1914 133.594 61.6992 135.273 61.6992C137.539 61.6992 139.355 60.9961 140.723 59.5898C142.129 58.1445 143.145 56.3672 143.77 54.2578C144.434 52.1094 144.766 50 144.766 47.9297C144.766 42.6953 143.73 37.793 141.66 33.2227C139.629 28.6133 136.855 24.5703 133.34 21.0938C129.863 17.5781 125.918 14.8437 121.504 12.8906C117.09 10.8984 112.5 9.90234 107.734 9.90234C102.227 9.90234 97.1484 10.918 92.5 12.9492C87.8516 14.9414 83.8086 17.6758 80.3711 21.1523C76.9727 24.6289 74.3164 28.5742 72.4023 32.9883C70.5273 37.4023 69.5898 42.0117 69.5898 46.8164C69.5898 51.8555 70.4688 56.6406 72.2266 61.1719C74.0234 65.7031 76.543 69.7266 79.7852 73.2422C83.0273 76.7188 86.8555 79.4531 91.2695 81.4453C95.7227 83.4766 100.625 84.4922 105.977 84.4922C110.273 84.4922 114.707 83.6719 119.277 82.0312C120.566 81.5625 121.66 81.3281 122.559 81.3281C124.746 81.3281 125.84 82.6562 125.84 85.3125C125.84 87.7344 124.668 89.3945 122.324 90.293C116.855 92.3633 111.387 93.3984 105.918 93.3984C99.3555 93.3984 93.3203 92.1484 87.8125 89.6484C82.3438 87.1875 77.5781 83.7891 73.5156 79.4531C69.4922 75.1172 66.3672 70.1758 64.1406 64.6289C61.9141 59.043 60.8008 53.1836 60.8008 47.0508C60.8008 41.2695 61.9336 35.6445 64.1992 30.1758C66.5039 24.668 69.7461 19.707 73.9258 15.293C78.1055 10.8398 83.0664 7.30469 88.8086 4.6875C94.5508 2.07031 100.859 0.761719 107.734 0.761719C113.555 0.761719 119.199 1.99219 124.668 4.45312C130.176 6.91406 135.098 10.3125 139.434 14.6484C143.809 18.9844 147.266 23.9844 149.805 29.6484C152.383 35.3125 153.672 41.3672 153.672 47.8125C153.672 51.7188 152.949 55.4102 151.504 58.8867C150.059 62.3633 147.969 65.1758 145.234 67.3242C142.5 69.4727 139.16 70.5469 135.215 70.5469C129.395 70.5469 124.922 68.1055 121.797 63.2227C119.961 65.0977 117.676 66.7188 114.941 68.0859C112.207 69.4531 109.16 70.1367 105.801 70.1367ZM105.332 31.9922C102.715 31.9922 100.332 32.6758 98.1836 34.043C96.0352 35.3711 94.3164 37.1484 93.0273 39.375C91.7383 41.6016 91.0938 44.0234 91.0938 46.6406C91.0938 49.2188 91.6797 51.6406 92.8516 53.9062C94.0625 56.1328 95.7422 57.9492 97.8906 59.3555C100.039 60.7227 102.52 61.4062 105.332 61.4062C109.434 61.4062 112.852 60 115.586 57.1875C118.32 54.375 119.707 50.9375 119.746 46.875C119.746 44.1406 119.102 41.6602 117.812 39.4336C116.523 37.168 114.785 35.3711 112.598 34.043C110.449 32.6758 108.027 31.9922 105.332 31.9922Z" fill="#3B82F6"/>
</svg>
